<?xml version="1.0" encoding="UTF-8"?>
<svg width="2100px" height="209px" viewBox="0 0 2100 209" version="1.1" xmlns="http://www.w3.org/2000/svg" xmlns:xlink="http://www.w3.org/1999/xlink">
    <!-- Generator: Sketch 48.2 (47327) - http://www.bohemiancoding.com/sketch -->
    <title>ContrastLogo</title>
    <desc>Created with Sketch.</desc>
    <defs></defs>
    <g id="Symbols" stroke="none" stroke-width="1" fill="none" fill-rule="evenodd">
        <g id="ContrastLogo">
            <path d="M154.385822,10.0601307 C156.017425,10.6039216 156.561292,12.5071895 156.017425,14.1385621 C155.473557,15.7699346 153.298087,16.3137255 151.938418,15.7699346 C140.245265,10.875817 127.73631,8.42875817 114.955422,8.42875817 C69.2705439,8.42875817 40.1736278,33.1712418 27.3927394,64.1673203 C17.6031228,88.9098039 17.6031228,117.458824 27.3927394,141.929412 C40.1736278,173.469281 69.2705439,197.667974 114.955422,197.667974 C127.73631,197.667974 140.245265,195.49281 151.938418,190.326797 C153.298087,189.783007 155.473557,190.598693 156.017425,191.95817 C156.833226,193.861438 156.017425,195.49281 154.385822,196.308497 C141.876867,201.47451 128.552111,203.921569 114.955422,203.921569 C66.551206,203.921569 35.5507533,177.819608 21.9540635,144.376471 C11.3486455,118.27451 11.3486455,87.8222222 21.9540635,61.9921569 C35.5507533,28.2771242 66.551206,2.1751634 114.955422,2.1751634 C128.552111,2.1751634 141.876867,4.89411765 154.385822,10.0601307 Z M146.771676,150.630065 C148.403278,149.814379 150.034881,150.35817 150.850683,151.989542 C151.666484,153.34902 151.122616,155.252288 149.762947,156.067974 C138.069794,162.593464 128.280178,164.768627 114.955422,164.768627 C86.1304393,164.768627 67.3670074,148.998693 59.4809273,128.334641 C53.22645,112.29281 53.22645,93.8039216 59.4809273,78.0339869 C67.3670074,57.3699346 86.1304393,41.3281046 114.955422,41.3281046 C128.280178,41.3281046 138.069794,43.503268 149.762947,50.0287582 C151.122616,50.8444444 151.666484,52.7477124 150.850683,54.379085 C150.034881,55.7385621 148.403278,56.2823529 146.771676,55.4666667 C136.166258,49.7568627 127.192442,47.5816993 114.955422,47.5816993 C88.8497772,47.5816993 72.5337495,61.9921569 65.191537,80.2091503 C59.4809273,94.6196078 59.4809273,111.74902 65.191537,126.159477 C72.5337495,144.648366 88.8497772,158.786928 114.955422,158.786928 C127.192442,158.786928 136.166258,156.611765 146.771676,150.630065 Z M253.705642,87.8222222 L242.82829,87.8222222 C240.924753,87.8222222 239.565084,86.4627451 239.565084,84.8313725 C239.565084,83.2 240.924753,81.8405229 242.82829,81.8405229 L253.705642,81.8405229 C262.951391,81.8405229 270.565537,74.7712418 270.565537,65.5267974 C270.565537,56.0104575 262.951391,49.2130719 253.705642,49.2130719 L219.441983,49.2130719 C215.362977,49.2130719 215.362977,42.9594771 219.441983,42.9594771 L253.705642,42.9594771 C266.48653,42.9594771 276.820014,52.475817 276.820014,65.5267974 C276.820014,78.3058824 266.48653,87.8222222 253.705642,87.8222222 Z M272.469074,199.571242 C273.556809,200.930719 273.284875,202.833987 271.925206,203.921569 C270.565537,205.00915 268.390067,204.737255 267.302331,203.105882 L222.705189,143.288889 L222.705189,201.47451 C222.705189,203.105882 221.073586,204.737255 219.441983,204.737255 C217.810381,204.737255 216.450712,203.105882 216.450712,201.47451 L216.450712,134.044444 C216.178778,133.228758 216.722646,132.141176 217.538447,131.32549 C218.898116,130.509804 220.801652,130.781699 221.889388,132.141176 L272.469074,199.571242 Z M183.818656,201.47451 C183.818656,203.105882 182.458987,204.737255 180.555451,204.737255 C178.923848,204.737255 177.564179,203.105882 177.564179,201.47451 L177.564179,7.06928105 C177.564179,5.4379085 178.923848,3.80653595 180.555451,3.80653595 L256.968847,3.80653595 C290.960572,3.80653595 317.882017,31.8117647 317.882017,65.5267974 C317.882017,96.5228758 294.495711,123.440523 263.495258,126.703268 L319.785554,199.571242 C320.873289,200.930719 320.601355,202.833987 319.241686,203.649673 C317.882017,205.00915 315.978481,204.737255 314.618812,203.105882 L254.793377,125.887582 C254.249509,125.343791 253.977576,124.528105 253.977576,123.712418 C253.977576,121.80915 255.337244,120.449673 256.968847,120.449673 C287.425432,120.449673 311.355606,95.4352941 311.355606,65.5267974 C311.355606,35.3464052 287.425432,10.3320261 256.968847,10.3320261 L183.818656,10.3320261 L183.818656,201.47451 Z M364.446681,8.70065359 C363.358946,7.06928105 363.902813,5.16601307 365.534416,4.3503268 C366.894085,3.53464052 368.797622,4.07843137 369.613423,5.4379085 L406.596419,68.2457516 L443.579415,5.4379085 C444.939084,4.07843137 446.570687,3.53464052 448.20229,4.3503268 C449.561959,5.16601307 450.105826,7.06928105 449.290025,8.70065359 L409.587691,76.130719 C408.228022,78.3058824 405.23675,78.3058824 403.877081,76.130719 L364.446681,8.70065359 Z M491.16783,5.4379085 C492.255565,4.07843137 494.159101,3.53464052 495.51877,4.3503268 C497.150373,5.4379085 497.422307,7.34117647 496.606506,8.70065359 L429.166924,115.555556 L429.166924,200.930719 C429.166924,203.105882 427.807255,204.465359 426.175652,204.465359 C424.54405,204.465359 423.184381,203.105882 423.184381,200.930719 L423.184381,114.739869 C423.184381,114.196078 423.184381,113.652288 423.456315,112.836601 L491.16783,5.4379085 Z M390.552325,200.930719 C390.552325,203.105882 389.192656,204.465359 387.28912,204.465359 C385.385583,204.465359 384.025914,203.105882 384.025914,200.930719 L384.025914,115.555556 L317.1302,8.70065359 C316.042465,7.34117647 316.586333,5.4379085 317.946002,4.3503268 C319.305671,3.53464052 321.209207,4.07843137 322.296943,5.4379085 L390.008458,112.836601 C390.280391,113.380392 390.552325,113.924183 390.552325,114.467974 L390.552325,200.930719 Z M585.592841,87.8222222 L574.443555,87.8222222 C572.811953,87.8222222 571.452284,86.4627451 571.452284,84.8313725 C571.452284,83.2 572.811953,81.8405229 574.443555,81.8405229 L585.592841,81.8405229 C593.206987,81.8405229 598.645663,77.7620915 600.821134,72.0522876 C602.452736,67.9738562 602.452736,63.0797386 600.821134,58.7294118 C598.645663,53.5633987 593.478921,49.2130719 585.592841,49.2130719 L551.329183,49.2130719 C549.425646,49.2130719 548.065977,47.8535948 548.065977,45.9503268 C548.065977,44.3189542 549.425646,42.9594771 551.329183,42.9594771 L585.592841,42.9594771 C596.470193,42.9594771 603.268538,48.669281 606.531743,56.2823529 C608.979147,61.9921569 608.979147,68.7895425 606.531743,74.4993464 C603.268538,82.1124183 596.470193,87.8222222 585.592841,87.8222222 Z M515.705856,201.47451 C515.705856,203.105882 514.074253,204.465359 512.44265,204.465359 C510.811047,204.465359 509.451378,203.105882 509.451378,201.47451 L509.451378,7.34117647 C509.451378,5.70980392 510.811047,4.07843137 512.44265,4.07843137 L588.856047,4.07843137 C617.409095,4.07843137 635.900593,20.1202614 644.058607,40.5124183 C650.041151,56.2823529 650.041151,74.4993464 644.058607,90.5411765 C635.900593,110.661438 617.409095,126.975163 588.856047,126.975163 L554.320455,126.975163 L554.320455,201.47451 C554.320455,203.105882 552.960786,204.465359 551.329183,204.465359 C549.425646,204.465359 548.065977,203.105882 548.065977,201.47451 L548.065977,123.440523 C548.065977,121.80915 549.425646,120.449673 551.329183,120.449673 L588.856047,120.449673 C614.417823,120.449673 630.733851,106.311111 638.076064,87.8222222 C643.514739,73.6836601 643.514739,57.0980392 638.076064,42.9594771 C630.733851,24.4705882 614.417823,10.3320261 588.856047,10.3320261 L515.705856,10.3320261 L515.705856,201.47451 Z M792.054576,42.9594771 C793.686179,42.9594771 795.045848,44.3189542 795.045848,45.9503268 C795.045848,47.8535948 793.686179,49.4849673 792.054576,49.4849673 L746.369699,49.4849673 L746.369699,201.47451 C746.369699,203.105882 745.01003,204.465359 743.378427,204.465359 C741.746824,204.465359 740.387155,203.105882 740.387155,201.47451 L740.387155,45.9503268 C740.387155,44.3189542 741.746824,42.9594771 743.378427,42.9594771 L792.054576,42.9594771 Z M656.087679,10.3320261 C654.456076,10.3320261 653.096407,8.97254902 653.096407,7.34117647 C653.096407,5.70980392 654.456076,4.3503268 656.087679,4.3503268 L791.782642,4.3503268 C793.686179,4.3503268 795.045848,5.70980392 795.045848,7.34117647 C795.045848,8.97254902 793.686179,10.3320261 791.782642,10.3320261 L656.087679,10.3320261 Z M656.087679,49.4849673 C654.456076,49.4849673 653.096407,47.8535948 653.096407,45.9503268 C653.096407,44.3189542 654.456076,42.9594771 656.087679,42.9594771 L704.763828,42.9594771 C706.395431,42.9594771 707.7551,44.3189542 707.7551,45.9503268 L707.7551,201.47451 C707.7551,203.105882 706.395431,204.465359 704.763828,204.465359 C702.860291,204.465359 701.500622,203.105882 701.500622,201.47451 L701.500622,49.4849673 L656.087679,49.4849673 Z M1005.85852,72.5960784 C1006.40239,74.227451 1005.31466,76.4026144 1003.68305,76.6745098 C1001.77952,77.2183007 1000.14791,76.4026144 999.604047,74.4993464 C986.551224,33.7150327 948.208559,6.5254902 905.24302,6.5254902 C847.593055,6.5254902 807.618787,47.3098039 807.618787,103.864052 C807.618787,160.418301 847.593055,201.47451 905.24302,201.47451 C948.208559,201.47451 986.551224,174.284967 999.604047,133.228758 C1000.14791,131.32549 1001.77952,130.509804 1003.68305,131.053595 C1005.31466,131.597386 1006.40239,133.500654 1005.85852,135.132026 C991.9899,178.90719 950.655963,208 905.24302,208 C843.785982,208 801.36431,163.952941 801.36431,103.864052 C801.36431,44.0470588 843.785982,0 905.24302,0 C950.655963,0 991.9899,29.3647059 1005.85852,72.5960784 Z M850.856261,135.675817 C850.040459,134.31634 850.584327,132.141176 851.943996,131.32549 C853.575598,130.509804 855.751069,131.053595 856.56687,132.413072 C866.356487,150.086275 884.847985,161.233987 905.24302,161.233987 C936.78734,161.233987 961.533315,135.132026 961.533315,103.864052 C961.533315,72.5960784 936.78734,46.4941176 905.24302,46.4941176 C884.847985,46.4941176 866.356487,57.6418301 856.56687,75.3150327 C855.751069,76.9464052 853.575598,77.4901961 851.943996,76.6745098 C850.584327,75.5869281 850.040459,73.6836601 850.856261,72.0522876 C862.005546,52.475817 882.672515,40.2405229 905.24302,40.2405229 C940.322479,40.2405229 968.059726,69.3333333 968.059726,103.864052 C968.059726,138.666667 940.322479,167.759477 905.24302,167.759477 C882.672515,167.759477 862.005546,155.252288 850.856261,135.675817 Z" id="CRYPTO" stroke="#FFFFFF" stroke-width="5" fill="#FFFFFF"></path>
            <path d="M1085,7.06559572 L1123.90723,7.06559572 L1123.90723,162.508701 L1185.66906,162.508701 L1185.66906,201.369478 L1085,201.369478 L1085,7.06559572 Z M1309.8009,201.369478 L1209.13184,201.369478 L1209.13184,7.06559572 L1306.53596,7.06559572 L1306.53596,45.9263722 L1248.03907,45.9263722 L1248.03907,84.7871486 L1299.18984,84.7871486 L1299.18984,123.647925 L1248.03907,123.647925 L1248.03907,162.508701 L1309.8009,162.508701 L1309.8009,201.369478 Z M1318.84351,201.369478 L1400.73916,0 L1404.82033,0 L1486.71598,201.369478 L1442.91133,201.369478 L1435.02105,180.444444 L1370.53844,180.444444 L1362.92024,201.369478 L1318.84351,201.369478 Z M1384.68652,144.029451 L1420.60089,144.029451 L1402.91578,93.4832664 L1384.68652,144.029451 Z M1638.05567,189.412316 C1623.09135,197.83668 1606.22248,202.456493 1587.72114,202.456493 C1459.30006,202.456493 1452.77018,10.3266399 1587.72114,5.43507363 C1610.84782,4.61981258 1629.62124,11.4136546 1633.15826,12.5006693 L1628.53292,51.9049531 C1620.91472,48.643909 1608.39911,44.2958501 1587.72114,44.8393574 C1509.09044,47.5568942 1512.62746,163.595716 1587.72114,163.595716 C1591.25816,163.595716 1595.06726,163.052209 1598.60428,162.508701 L1598.60428,104.08166 L1638.05567,104.08166 L1638.05567,189.412316 Z M1810.34541,133.702811 C1810.34541,226.099063 1669.6808,226.099063 1669.6808,133.702811 L1669.6808,7.06559572 L1708.58803,7.06559572 L1708.58803,133.431058 C1708.58803,174.19411 1771.71026,174.19411 1771.71026,133.431058 L1771.71026,7.06559572 L1810.34541,7.06559572 L1810.34541,133.702811 Z M1944,201.369478 L1843.33094,201.369478 L1843.33094,7.06559572 L1940.73506,7.06559572 L1940.73506,45.9263722 L1882.23817,45.9263722 L1882.23817,84.7871486 L1933.38894,84.7871486 L1933.38894,123.647925 L1882.23817,123.647925 L1882.23817,162.508701 L1944,162.508701 L1944,201.369478 Z" id="LEAGUE" fill="#1F87F0"></path>
        </g>
    </g>
</svg>