<?xml version="1.0" encoding="UTF-8"?>
<svg width="1505px" height="171px" viewBox="0 0 1505 171" version="1.1" xmlns="http://www.w3.org/2000/svg" xmlns:xlink="http://www.w3.org/1999/xlink">
    <!-- Generator: Sketch 48.2 (47327) - http://www.bohemiancoding.com/sketch -->
    <title>WhiteFullLogo</title>
    <desc>Created with Sketch.</desc>
    <defs></defs>
    <g id="header" stroke="none" stroke-width="1" fill="none" fill-rule="evenodd" transform="translate(-747.000000, -636.000000)">
        <g id="WhiteFullLogo" transform="translate(749.000000, 638.000000)" fill="#FFFFFF">
            <path d="M113.1264,8.4096 C114.432,8.8448 114.8672,10.368 114.432,11.6736 C113.9968,12.9792 112.256,13.4144 111.168,12.9792 C101.8112,9.0624 91.8016,7.104 81.5744,7.104 C45.0176,7.104 21.7344,26.9056 11.5072,51.712 C3.6736,71.5136 3.6736,94.3616 11.5072,113.9456 C21.7344,139.1872 45.0176,158.5536 81.5744,158.5536 C91.8016,158.5536 101.8112,156.8128 111.168,152.6784 C112.256,152.2432 113.9968,152.896 114.432,153.984 C115.0848,155.5072 114.432,156.8128 113.1264,157.4656 C103.1168,161.6 92.4544,163.5584 81.5744,163.5584 C42.8416,163.5584 18.0352,142.6688 7.1552,115.904 C-1.3312,95.0144 -1.3312,70.6432 7.1552,49.9712 C18.0352,22.9888 42.8416,2.0992 81.5744,2.0992 C92.4544,2.0992 103.1168,4.2752 113.1264,8.4096 Z M107.0336,120.9088 C108.3392,120.256 109.6448,120.6912 110.2976,121.9968 C110.9504,123.0848 110.5152,124.608 109.4272,125.2608 C100.0704,130.4832 92.2368,132.224 81.5744,132.224 C58.5088,132.224 43.4944,119.6032 37.184,103.0656 C32.1792,90.2272 32.1792,75.4304 37.184,62.8096 C43.4944,46.272 58.5088,33.4336 81.5744,33.4336 C92.2368,33.4336 100.0704,35.1744 109.4272,40.3968 C110.5152,41.0496 110.9504,42.5728 110.2976,43.8784 C109.6448,44.9664 108.3392,45.4016 107.0336,44.7488 C98.5472,40.1792 91.3664,38.4384 81.5744,38.4384 C60.6848,38.4384 47.6288,49.9712 41.7536,64.5504 C37.184,76.0832 37.184,89.792 41.7536,101.3248 C47.6288,116.1216 60.6848,127.4368 81.5744,127.4368 C91.3664,127.4368 98.5472,125.696 107.0336,120.9088 Z M192.6016,70.6432 L183.8976,70.6432 C182.3744,70.6432 181.2864,69.5552 181.2864,68.2496 C181.2864,66.944 182.3744,65.856 183.8976,65.856 L192.6016,65.856 C200,65.856 206.0928,60.1984 206.0928,52.8 C206.0928,45.184 200,39.744 192.6016,39.744 L165.184,39.744 C161.92,39.744 161.92,34.7392 165.184,34.7392 L192.6016,34.7392 C202.8288,34.7392 211.0976,42.3552 211.0976,52.8 C211.0976,63.0272 202.8288,70.6432 192.6016,70.6432 Z M207.616,160.0768 C208.4864,161.1648 208.2688,162.688 207.1808,163.5584 C206.0928,164.4288 204.352,164.2112 203.4816,162.9056 L167.7952,115.0336 L167.7952,161.6 C167.7952,162.9056 166.4896,164.2112 165.184,164.2112 C163.8784,164.2112 162.7904,162.9056 162.7904,161.6 L162.7904,107.6352 C162.5728,106.9824 163.008,106.112 163.6608,105.4592 C164.7488,104.8064 166.272,105.024 167.1424,106.112 L207.616,160.0768 Z M136.6784,161.6 C136.6784,162.9056 135.5904,164.2112 134.0672,164.2112 C132.7616,164.2112 131.6736,162.9056 131.6736,161.6 L131.6736,6.016 C131.6736,4.7104 132.7616,3.4048 134.0672,3.4048 L195.2128,3.4048 C222.4128,3.4048 243.9552,25.8176 243.9552,52.8 C243.9552,77.6064 225.2416,99.1488 200.4352,101.76 L245.4784,160.0768 C246.3488,161.1648 246.1312,162.688 245.0432,163.3408 C243.9552,164.4288 242.432,164.2112 241.344,162.9056 L193.472,101.1072 C193.0368,100.672 192.8192,100.0192 192.8192,99.3664 C192.8192,97.8432 193.9072,96.7552 195.2128,96.7552 C219.584,96.7552 238.7328,76.736 238.7328,52.8 C238.7328,28.6464 219.584,8.6272 195.2128,8.6272 L136.6784,8.6272 L136.6784,161.6 Z M281.216,7.3216 C280.3456,6.016 280.7808,4.4928 282.0864,3.84 C283.1744,3.1872 284.6976,3.6224 285.3504,4.7104 L314.944,54.976 L344.5376,4.7104 C345.6256,3.6224 346.9312,3.1872 348.2368,3.84 C349.3248,4.4928 349.76,6.016 349.1072,7.3216 L317.3376,61.2864 C316.2496,63.0272 313.856,63.0272 312.768,61.2864 L281.216,7.3216 Z M382.6176,4.7104 C383.488,3.6224 385.0112,3.1872 386.0992,3.84 C387.4048,4.7104 387.6224,6.2336 386.9696,7.3216 L333.0048,92.8384 L333.0048,161.1648 C333.0048,162.9056 331.9168,163.9936 330.6112,163.9936 C329.3056,163.9936 328.2176,162.9056 328.2176,161.1648 L328.2176,92.1856 C328.2176,91.7504 328.2176,91.3152 328.4352,90.6624 L382.6176,4.7104 Z M302.1056,161.1648 C302.1056,162.9056 301.0176,163.9936 299.4944,163.9936 C297.9712,163.9936 296.8832,162.9056 296.8832,161.1648 L296.8832,92.8384 L243.3536,7.3216 C242.4832,6.2336 242.9184,4.7104 244.0064,3.84 C245.0944,3.1872 246.6176,3.6224 247.488,4.7104 L301.6704,90.6624 C301.888,91.0976 302.1056,91.5328 302.1056,91.968 L302.1056,161.1648 Z M458.176,70.6432 L449.2544,70.6432 C447.9488,70.6432 446.8608,69.5552 446.8608,68.2496 C446.8608,66.944 447.9488,65.856 449.2544,65.856 L458.176,65.856 C464.2688,65.856 468.6208,62.592 470.3616,58.0224 C471.6672,54.7584 471.6672,50.8416 470.3616,47.36 C468.6208,43.2256 464.4864,39.744 458.176,39.744 L430.7584,39.744 C429.2352,39.744 428.1472,38.656 428.1472,37.1328 C428.1472,35.8272 429.2352,34.7392 430.7584,34.7392 L458.176,34.7392 C466.88,34.7392 472.32,39.3088 474.9312,45.4016 C476.8896,49.9712 476.8896,55.4112 474.9312,59.9808 C472.32,66.0736 466.88,70.6432 458.176,70.6432 Z M402.2528,161.6 C402.2528,162.9056 400.9472,163.9936 399.6416,163.9936 C398.336,163.9936 397.248,162.9056 397.248,161.6 L397.248,6.2336 C397.248,4.928 398.336,3.6224 399.6416,3.6224 L460.7872,3.6224 C483.6352,3.6224 498.432,16.4608 504.96,32.7808 C509.7472,45.4016 509.7472,59.9808 504.96,72.8192 C498.432,88.9216 483.6352,101.9776 460.7872,101.9776 L433.152,101.9776 L433.152,161.6 C433.152,162.9056 432.064,163.9936 430.7584,163.9936 C429.2352,163.9936 428.1472,162.9056 428.1472,161.6 L428.1472,99.1488 C428.1472,97.8432 429.2352,96.7552 430.7584,96.7552 L460.7872,96.7552 C481.2416,96.7552 494.2976,85.44 500.1728,70.6432 C504.5248,59.328 504.5248,46.0544 500.1728,34.7392 C494.2976,19.9424 481.2416,8.6272 460.7872,8.6272 L402.2528,8.6272 L402.2528,161.6 Z M623.3856,34.7392 C624.6912,34.7392 625.7792,35.8272 625.7792,37.1328 C625.7792,38.656 624.6912,39.9616 623.3856,39.9616 L586.8288,39.9616 L586.8288,161.6 C586.8288,162.9056 585.7408,163.9936 584.4352,163.9936 C583.1296,163.9936 582.0416,162.9056 582.0416,161.6 L582.0416,37.1328 C582.0416,35.8272 583.1296,34.7392 584.4352,34.7392 L623.3856,34.7392 Z M514.5856,8.6272 C513.28,8.6272 512.192,7.5392 512.192,6.2336 C512.192,4.928 513.28,3.84 514.5856,3.84 L623.168,3.84 C624.6912,3.84 625.7792,4.928 625.7792,6.2336 C625.7792,7.5392 624.6912,8.6272 623.168,8.6272 L514.5856,8.6272 Z M514.5856,39.9616 C513.28,39.9616 512.192,38.656 512.192,37.1328 C512.192,35.8272 513.28,34.7392 514.5856,34.7392 L553.536,34.7392 C554.8416,34.7392 555.9296,35.8272 555.9296,37.1328 L555.9296,161.6 C555.9296,162.9056 554.8416,163.9936 553.536,163.9936 C552.0128,163.9936 550.9248,162.9056 550.9248,161.6 L550.9248,39.9616 L514.5856,39.9616 Z M794.4704,58.4576 C794.9056,59.7632 794.0352,61.504 792.7296,61.7216 C791.2064,62.1568 789.9008,61.504 789.4656,59.9808 C779.0208,27.3408 748.3392,5.5808 713.9584,5.5808 C667.8272,5.5808 635.84,38.2208 635.84,83.4816 C635.84,128.7424 667.8272,161.6 713.9584,161.6 C748.3392,161.6 779.0208,139.84 789.4656,106.9824 C789.9008,105.4592 791.2064,104.8064 792.7296,105.2416 C794.0352,105.6768 794.9056,107.2 794.4704,108.5056 C783.3728,143.5392 750.2976,166.8224 713.9584,166.8224 C664.7808,166.8224 630.8352,131.5712 630.8352,83.4816 C630.8352,35.6096 664.7808,0.3584 713.9584,0.3584 C750.2976,0.3584 783.3728,23.8592 794.4704,58.4576 Z M670.4384,108.9408 C669.7856,107.8528 670.2208,106.112 671.3088,105.4592 C672.6144,104.8064 674.3552,105.2416 675.008,106.3296 C682.8416,120.4736 697.6384,129.3952 713.9584,129.3952 C739.2,129.3952 759.0016,108.5056 759.0016,83.4816 C759.0016,58.4576 739.2,37.568 713.9584,37.568 C697.6384,37.568 682.8416,46.4896 675.008,60.6336 C674.3552,61.9392 672.6144,62.3744 671.3088,61.7216 C670.2208,60.8512 669.7856,59.328 670.4384,58.0224 C679.36,42.3552 695.8976,32.5632 713.9584,32.5632 C742.0288,32.5632 764.224,55.8464 764.224,83.4816 C764.224,111.3344 742.0288,134.6176 713.9584,134.6176 C695.8976,134.6176 679.36,124.608 670.4384,108.9408 Z" id="CRYPTO" stroke="#FFFFFF" stroke-width="4"></path>
            <path d="M815.808,6.016 L846.9248,6.016 L846.9248,130.4832 L896.32,130.4832 L896.32,161.6 L815.808,161.6 L815.808,6.016 Z M995.5968,161.6 L915.0848,161.6 L915.0848,6.016 L992.9856,6.016 L992.9856,37.1328 L946.2016,37.1328 L946.2016,68.2496 L987.1104,68.2496 L987.1104,99.3664 L946.2016,99.3664 L946.2016,130.4832 L995.5968,130.4832 L995.5968,161.6 Z M1002.8288,161.6 L1068.3264,0.3584 L1071.5904,0.3584 L1137.088,161.6 L1102.0544,161.6 L1095.744,144.8448 L1044.1728,144.8448 L1038.08,161.6 L1002.8288,161.6 Z M1055.488,115.6864 L1084.2112,115.6864 L1070.0672,75.2128 L1055.488,115.6864 Z M1258.1248,152.0256 C1246.1568,158.7712 1232.6656,162.4704 1217.8688,162.4704 C1115.1616,162.4704 1109.9392,8.6272 1217.8688,4.7104 C1236.3648,4.0576 1251.3792,9.4976 1254.208,10.368 L1250.5088,41.92 C1244.416,39.3088 1234.4064,35.8272 1217.8688,36.2624 C1154.9824,38.4384 1157.8112,131.3536 1217.8688,131.3536 C1220.6976,131.3536 1223.744,130.9184 1226.5728,130.4832 L1226.5728,83.6992 L1258.1248,83.6992 L1258.1248,152.0256 Z M1395.9168,107.4176 C1395.9168,181.4016 1283.4176,181.4016 1283.4176,107.4176 L1283.4176,6.016 L1314.5344,6.016 L1314.5344,107.2 C1314.5344,139.84 1365.0176,139.84 1365.0176,107.2 L1365.0176,6.016 L1395.9168,6.016 L1395.9168,107.4176 Z M1502.8096,161.6 L1422.2976,161.6 L1422.2976,6.016 L1500.1984,6.016 L1500.1984,37.1328 L1453.4144,37.1328 L1453.4144,68.2496 L1494.3232,68.2496 L1494.3232,99.3664 L1453.4144,99.3664 L1453.4144,130.4832 L1502.8096,130.4832 L1502.8096,161.6 Z" id="LEAGUE"></path>
        </g>
    </g>
</svg>