<?xml version="1.0" encoding="UTF-8"?>
<svg width="330px" height="376px" viewBox="0 0 330 376" version="1.1" xmlns="http://www.w3.org/2000/svg" xmlns:xlink="http://www.w3.org/1999/xlink">
    <!-- Generator: Sketch 48.2 (47327) - http://www.bohemiancoding.com/sketch -->
    <title>Group</title>
    <desc>Created with Sketch.</desc>
    <defs></defs>
    <g id="header" stroke="none" stroke-width="1" fill="none" fill-rule="evenodd" transform="translate(-1336.000000, -156.000000)">
        <g id="Group" transform="translate(1336.000000, 156.000000)">
            <polyline id="Fill-98" fill-opacity="0.5" fill="#E0DED9" points="165.679223 1.112 282.797184 118.0848 328.466942 94.6224 165.679223 1.112"></polyline>
            <polyline id="Fill-99" fill-opacity="0.5" fill="#9FA3A0" points="165.679223 1.112 165.53665 1.2544 282.758738 118.328 328.885049 94.632 164.469757 0.1872 165.53665 1.2544 165.679223 1.112 165.579903 1.2864 328.047233 94.6112 282.834029 117.84 165.820194 0.9712 165.679223 1.112 165.579903 1.2864 165.679223 1.112"></polyline>
            <polyline id="Fill-100" fill-opacity="0.5" fill="#D5D3CD" points="282.797184 118.0848 165.679223 319.9088 48.5612621 118.0848 282.797184 118.0848"></polyline>
            <polyline id="Fill-101" fill-opacity="0.5" fill="#D5D3CD" points="165.679223 1.112 48.5612621 118.0848 282.797184 118.0848 165.679223 1.112"></polyline>
            <polyline id="Fill-102" fill-opacity="0.5" fill="#9FA3A0" points="165.679223 1.112 165.53665 0.9712 48.0758738 118.2848 283.280971 118.2848 165.679223 0.8288 165.53665 0.9712 165.679223 1.112 165.53665 1.2544 282.313398 117.8848 49.0434466 117.8848 165.820194 1.2544 165.679223 1.112 165.53665 1.2544 165.679223 1.112"></polyline>
            <polyline id="Fill-103" fill-opacity="0.5" fill="#D1CFC9" points="282.797184 118.0848 328.466942 281.64 165.679223 319.9088 282.797184 118.0848"></polyline>
            <polyline id="Fill-104" fill-opacity="0.5" fill="#9FA3A0" points="282.797184 118.0848 282.60335 118.1376 328.218641 281.4928 166.084515 319.608 282.970194 118.184 282.797184 118.0848 282.60335 118.1376 282.797184 118.0848 282.622573 117.984 165.27233 320.2096 328.715243 281.7872 282.861262 117.5728 282.622573 117.984 282.797184 118.0848"></polyline>
            <polyline id="Fill-105" fill-opacity="0.5" fill="#A9AFAC" points="2.88990291 281.64 165.679223 319.9088 48.5612621 118.0848 2.88990291 281.64"></polyline>
            <polyline id="Fill-106" fill-opacity="0.5" fill="#9FA3A0" points="2.88990291 281.64 2.84504854 281.8352 166.084515 320.2096 48.4955825 117.5728 2.64160194 281.7872 2.84504854 281.8352 2.88990291 281.64 3.08373786 281.6944 48.6253398 118.5952 165.27233 319.608 2.93635922 281.4464 2.88990291 281.64 3.08373786 281.6944 2.88990291 281.64"></polyline>
            <polyline id="Fill-107" fill-opacity="0.5" fill="#E0DED9" points="282.797184 118.0848 328.466942 94.6224 328.466942 281.64 282.797184 118.0848"></polyline>
            <polyline id="Fill-108" fill="#9FA3A0" points="282.797184 118.0848 282.888495 118.2624 328.266699 94.9488 328.266699 280.1792 282.989417 118.0304 282.797184 118.0848 282.888495 118.2624 282.797184 118.0848 282.60335 118.1376 328.667184 283.1024 328.667184 94.2944 282.560097 117.9808 282.60335 118.1376 282.797184 118.0848"></polyline>
            <polyline id="Fill-109" fill-opacity="0.5" fill="#A7ADAA" points="165.679223 1.112 2.88990291 94.6224 48.5612621 118.0848 165.679223 1.112"></polyline>
            <polyline id="Fill-110" fill-opacity="0.5" fill="#9FA3A0" points="165.679223 1.112 165.579903 0.9392 2.47179612 94.632 48.5981068 118.328 166.888689 0.1872 165.579903 0.9392 165.679223 1.112 165.53665 0.9712 48.5212136 117.84 3.30961165 94.6112 165.778544 1.2864 165.679223 1.112 165.53665 0.9712 165.679223 1.112"></polyline>
            <polyline id="Fill-111" fill-opacity="0.5" fill="#919B9A" points="3.15262136 95.8752 2.88990291 281.64 48.6541748 119.5392 3.15262136 95.8752"></polyline>
            <polyline id="Fill-112" fill-opacity="0.5" fill="#9FA3A0" points="3.15262136 95.8752 2.95237864 95.8752 2.68805825 283.096 48.8896602 119.4368 2.95398058 95.5456 2.95237864 95.8752 3.15262136 95.8752 3.05970874 96.0528 48.4170874 119.6416 3.09174757 280.1872 3.35286408 95.8752 3.15262136 95.8752 3.05970874 96.0528 3.15262136 95.8752"></polyline>
            <polyline id="Fill-113" fill-opacity="0.5" fill="#8C9594" points="1.60194175 282.0976 165.679223 375.1504 165.679223 319.9088 1.60194175 282.0976"></polyline>
            <polyline id="Fill-114" fill-opacity="0.5" fill="#9FA3A0" points="1.60194175 282.0976 1.50262136 282.272 165.879466 375.4928 165.879466 319.7504 0.309174757 281.5952 1.50262136 282.272 1.60194175 282.0976 1.55708738 282.2928 165.478981 320.0688 165.478981 374.8064 1.70126214 281.9248 1.60194175 282.0976 1.55708738 282.2928 1.60194175 282.0976"></polyline>
            <polyline id="Fill-115" fill-opacity="0.5" fill="#9BA3A1" points="328.466942 281.64 165.679223 375.1504 165.679223 319.9088 328.466942 281.64"></polyline>
            <polyline id="Fill-116" fill-opacity="0.5" fill="#9FA3A0" points="328.466942 281.64 328.367621 281.4672 165.879466 374.8032 165.879466 320.0672 328.513398 281.8352 328.466942 281.64 328.367621 281.4672 328.466942 281.64 328.420485 281.4464 165.478981 319.7504 165.478981 375.496 329.754903 281.1312 328.420485 281.4464 328.466942 281.64"></polyline>
        </g>
    </g>
</svg>